<?xml version="1.0" standalone="no"?>
<!DOCTYPE svg PUBLIC "-//W3C//DTD SVG 20010904//EN"
 "http://www.w3.org/TR/2001/REC-SVG-20010904/DTD/svg10.dtd">
<svg version="1.0" xmlns="http://www.w3.org/2000/svg"
 width="500.000000pt" height="500.000000pt" viewBox="0 0 500.000000 500.000000"
 preserveAspectRatio="xMidYMid meet">

<g transform="translate(0.000000,500.000000) scale(0.100000,-0.100000)"
fill="#000000" stroke="none">
<path d="M2430 4157 c-25 -13 -66 -36 -92 -51 -55 -32 -100 -35 -177 -12 -30
9 -79 16 -109 16 l-55 0 -71 -74 c-39 -40 -81 -79 -94 -85 -12 -7 -62 -14
-110 -17 -48 -3 -96 -7 -108 -9 -34 -7 -73 -54 -111 -133 -20 -40 -47 -82 -61
-93 -14 -10 -62 -30 -107 -44 -119 -36 -143 -67 -160 -202 -8 -64 -36 -107
-94 -148 -24 -16 -64 -49 -88 -72 l-45 -43 7 -122 c7 -138 13 -121 -83 -242
-59 -74 -62 -105 -22 -196 49 -111 49 -135 5 -244 -48 -118 -45 -140 32 -233
30 -37 60 -79 65 -93 5 -15 6 -70 2 -132 -5 -89 -4 -112 9 -131 34 -53 44 -57
133 -57 51 0 84 4 84 10 0 6 -13 36 -29 68 -36 72 -95 244 -116 342 -26 115
-32 419 -11 540 36 207 118 412 237 591 77 114 251 292 368 378 165 120 400
220 604 258 130 25 419 24 542 -1 301 -61 559 -199 776 -415 216 -217 355
-477 416 -778 25 -126 25 -444 0 -563 -24 -111 -69 -244 -117 -347 l-39 -83
88 0 c87 0 89 1 120 32 l32 32 -3 131 -3 131 62 78 c82 102 86 125 42 230 -44
106 -45 158 -1 248 49 103 42 142 -44 237 -61 67 -65 84 -58 213 l7 118 -45
42 c-25 24 -66 58 -91 76 -63 44 -78 69 -93 160 -24 135 -38 151 -171 191 -40
12 -84 31 -97 44 -14 12 -44 59 -66 105 -52 106 -69 117 -203 127 -56 4 -114
13 -128 21 -15 7 -48 38 -74 68 -25 30 -58 62 -72 71 -32 21 -95 21 -165 0
-91 -27 -134 -21 -221 31 -96 57 -136 64 -197 31z"/>
<path d="M2335 3920 c-378 -42 -726 -231 -976 -530 -141 -168 -255 -405 -304
-630 -22 -102 -31 -364 -16 -487 21 -164 76 -347 146 -481 l27 -52 1288 0
1288 0 33 68 c109 226 144 386 143 652 -1 267 -38 429 -150 655 -183 373 -541
665 -938 766 -170 43 -369 58 -541 39z m110 -194 c6 -45 11 -56 29 -59 14 -3
10 -5 -11 -6 -28 -1 -33 3 -33 22 0 12 -3 39 -6 60 -4 23 -3 37 4 37 6 0 14
-25 17 -54z m144 -3 c6 -31 8 -59 5 -62 -4 -3 -9 0 -11 7 -3 6 -15 12 -28 12
-13 0 -25 -6 -28 -12 -2 -7 -7 -10 -11 -7 -5 5 2 34 29 107 2 6 11 12 18 12 9
0 18 -20 26 -57z m100 1 c15 -52 16 -51 26 9 3 20 11 37 16 37 6 0 8 -8 6 -17
-3 -10 -8 -39 -12 -65 -9 -67 -30 -63 -46 10 -7 31 -14 50 -15 42 -2 -8 -5
-32 -9 -52 -3 -21 -11 -38 -17 -38 -10 0 -8 21 8 103 8 40 27 28 43 -29z
m-369 36 c0 -5 -9 -10 -21 -10 -14 0 -19 -5 -17 -17 2 -11 11 -17 21 -15 9 2
17 -2 17 -8 0 -5 -7 -10 -15 -10 -8 0 -15 -9 -15 -20 0 -13 7 -20 20 -20 11 0
20 -4 20 -10 0 -5 -13 -10 -29 -10 -27 0 -29 3 -36 55 -3 30 -4 59 0 65 8 13
55 13 55 0z m530 -25 c7 -9 10 -19 6 -22 -4 -4 -11 -1 -16 7 -16 25 -45 -2
-48 -45 -3 -36 -2 -37 23 -33 16 4 24 1 22 -6 -5 -16 -36 -20 -52 -6 -19 16
-19 53 0 90 17 33 45 39 65 15z m-692 -60 c22 -40 26 -55 16 -55 -8 0 -14 4
-14 9 0 5 -9 7 -20 4 -11 -3 -20 -12 -20 -19 0 -8 -4 -14 -10 -14 -6 0 -10 28
-10 65 0 83 17 86 58 10z m766 19 c-4 -17 -2 -29 7 -34 17 -11 29 -3 29 21 0
10 5 19 10 19 14 0 12 -19 -6 -73 -17 -51 -37 -64 -28 -18 8 38 -22 52 -36 16
-5 -14 -14 -25 -20 -25 -13 0 -13 1 11 65 21 56 45 77 33 29z m-875 -49 c24
-64 24 -65 12 -65 -5 0 -16 19 -24 43 -8 23 -18 50 -22 60 -4 9 -3 17 3 17 6
0 20 -25 31 -55z m-74 5 c10 -11 15 -26 11 -36 -4 -10 2 -23 16 -35 18 -14 20
-18 7 -19 -9 0 -22 7 -29 15 -17 20 -32 8 -20 -16 8 -14 7 -19 -2 -19 -7 0
-23 24 -34 53 l-22 52 22 12 c28 16 30 16 51 -7z m1107 3 c23 -21 23 -40 -2
-80 -35 -57 -88 -35 -76 32 4 19 17 41 29 50 27 19 26 19 49 -2z m91 -94 l-3
-54 20 38 c11 20 25 37 30 37 15 0 13 -5 -21 -60 -38 -61 -54 -56 -45 14 l6
51 -22 -35 c-28 -46 -27 -44 -34 -37 -9 9 48 108 60 104 7 -3 10 -26 9 -58z
m-1295 7 c23 -25 38 -47 33 -51 -5 -3 -12 -1 -16 5 -10 16 -45 -7 -39 -25 4
-8 1 -15 -5 -15 -5 0 -15 19 -21 43 -6 23 -13 48 -16 55 -5 15 3 32 15 32 4 0
26 -20 49 -44z m-113 -61 c6 -51 8 -54 27 -44 32 17 32 3 0 -20 -16 -11 -32
-18 -36 -14 -3 3 -6 27 -6 53 0 53 -7 65 -27 48 -7 -6 -16 -8 -20 -4 -7 7 26
35 43 36 7 0 15 -24 19 -55z m1543 23 c17 -17 15 -33 -3 -18 -8 6 -19 9 -25 5
-13 -8 -13 -35 0 -35 6 0 10 -5 10 -10 0 -6 -10 -8 -24 -4 -29 7 -44 -21 -18
-35 9 -5 14 -12 11 -16 -3 -3 -17 3 -29 13 l-23 19 32 46 c33 48 48 56 69 35z
m-669 -19 c130 -21 246 -82 326 -171 52 -58 118 -186 140 -273 20 -79 19 -92
-8 -110 -21 -13 -96 -15 -597 -13 l-573 3 -19 26 c-18 24 -19 32 -8 83 17 83
90 222 147 280 143 146 367 212 592 175z m-962 -73 c5 -44 23 -60 38 -36 3 6
12 10 18 10 13 -1 -39 -50 -53 -50 -5 0 -12 21 -16 48 -8 59 -12 66 -30 51 -8
-6 -17 -9 -21 -6 -3 4 5 15 18 26 30 24 40 15 46 -43z m1715 27 c23 -20 23
-32 1 -27 -12 3 -27 -8 -43 -31 -14 -19 -31 -35 -38 -35 -8 0 -1 16 18 40 18
23 29 47 26 55 -7 20 13 19 36 -2z m-1781 -85 c36 -40 46 -58 34 -58 -6 0 -79
79 -83 91 -8 20 12 6 49 -33z m1866 9 c7 -5 10 -13 7 -19 -3 -5 -12 -4 -20 3
-22 18 -42 -4 -24 -26 12 -14 11 -16 -12 -10 -29 7 -47 -10 -29 -28 23 -23 10
-29 -14 -7 l-25 24 41 42 c40 41 48 43 76 21z m-1936 -28 c17 -9 19 -17 14
-50 -4 -25 -3 -39 4 -39 6 0 11 -7 11 -16 0 -12 -15 -3 -48 27 l-48 44 20 23
c23 26 21 25 47 11z m1609 -502 c0 -10 -280 -167 -372 -208 -33 -14 -65 4
-208 116 l-95 75 -307 0 c-267 0 -308 2 -308 15 0 13 78 15 645 15 517 0 645
-3 645 -13z m-635 -150 c-11 -8 -62 -36 -112 -63 -51 -27 -93 -52 -93 -56 0
-5 182 -8 405 -8 l405 0 1 -27 c2 -43 -2 -67 -13 -80 -8 -10 -141 -13 -604
-13 l-594 0 -10 26 c-12 30 -13 64 -2 81 5 8 34 13 75 14 37 1 67 4 67 8 0 3
-33 31 -72 60 -40 30 -77 58 -82 63 -6 4 138 8 319 8 278 0 326 -2 310 -13z
m507 -493 c29 -27 42 -65 26 -76 -22 -13 -68 -9 -68 6 0 18 -39 31 -52 18 -14
-14 -22 -93 -14 -136 6 -29 11 -36 30 -36 22 0 36 16 36 41 0 5 -9 9 -20 9
-16 0 -20 7 -20 30 l0 30 60 0 60 0 0 -95 0 -95 -35 0 c-26 0 -35 4 -35 17 0
15 -1 15 -18 0 -36 -33 -97 -15 -128 36 -15 25 -19 51 -19 114 0 88 16 124 66
151 32 17 104 9 131 -14z m-1739 -6 c3 -13 9 -54 13 -93 11 -112 21 -120 28
-25 12 142 11 140 62 140 29 0 44 -4 44 -12 0 -7 -14 -78 -30 -157 -17 -79
-30 -146 -30 -148 0 -1 -27 -3 -60 -3 -33 0 -60 1 -60 3 0 2 -13 69 -30 150
-16 81 -30 152 -30 157 0 6 20 10 44 10 37 0 45 -3 49 -22z m351 5 c14 -51 66
-277 66 -289 0 -10 -13 -14 -45 -14 -41 0 -45 2 -45 25 0 22 -4 25 -35 25 -31
0 -35 -3 -35 -25 0 -23 -3 -25 -48 -25 l-49 0 34 148 c18 81 35 153 38 160 3
7 24 12 59 12 43 0 56 -4 60 -17z m237 -73 l27 -85 1 88 1 87 45 0 45 0 0
-160 0 -160 -58 0 -58 0 -31 98 -31 97 -1 -97 -1 -98 -40 0 -40 0 0 160 0 161
57 -3 56 -3 28 -85z m342 70 c36 -29 44 -75 19 -109 l-20 -27 24 -21 c16 -15
24 -32 24 -55 -1 -66 -39 -88 -149 -88 l-81 0 0 160 0 160 79 0 c63 0 83 -4
104 -20z m179 -102 c3 -115 4 -123 23 -123 19 0 20 8 23 123 l3 123 46 -3 45
-3 -1 -124 c-1 -68 -6 -133 -12 -143 -22 -41 -102 -60 -165 -38 -50 17 -58 42
-62 183 l-4 127 51 0 50 0 3 -122z m349 105 c50 -30 61 -117 20 -160 -17 -17
-17 -20 5 -72 13 -29 24 -57 24 -62 0 -5 -20 -9 -44 -9 l-44 0 -19 53 -18 52
-3 -52 -3 -53 -45 0 -44 0 0 160 0 160 71 0 c49 0 80 -5 100 -17z m449 -92 c0
-122 4 -141 30 -141 26 0 30 19 30 141 l0 109 45 0 45 0 0 -120 c0 -71 -5
-130 -12 -145 -35 -78 -190 -72 -218 8 -5 17 -10 81 -10 143 l0 114 45 0 45 0
0 -109z m358 72 c-3 -36 -5 -38 -40 -41 -30 -3 -38 -7 -38 -23 0 -15 7 -19 35
-19 34 0 35 -1 35 -40 0 -39 -1 -40 -35 -40 -28 0 -35 -4 -35 -19 0 -16 8 -20
38 -23 35 -3 37 -5 40 -40 l3 -38 -85 0 -86 0 0 160 0 160 86 0 85 0 -3 -37z
m223 8 c37 -37 41 -104 9 -144 -21 -26 -21 -27 -2 -64 11 -21 23 -48 26 -60 7
-21 4 -23 -37 -23 -44 0 -44 0 -65 53 l-21 52 0 -52 -1 -53 -45 0 -45 0 0 160
0 160 76 0 c70 0 78 -2 105 -29z"/>
<path d="M2548 3725 c-4 -17 -1 -25 8 -25 8 0 14 11 14 25 0 14 -4 25 -9 25
-5 0 -11 -11 -13 -25z"/>
<path d="M2120 3677 c0 -18 5 -27 15 -27 13 0 14 4 4 23 -17 33 -19 33 -19 4z"/>
<path d="M1930 3631 c0 -24 18 -37 31 -24 13 13 1 43 -17 43 -8 0 -14 -9 -14
-19z"/>
<path d="M3037 3632 c-21 -23 -23 -72 -2 -72 19 0 48 44 43 66 -4 25 -22 27
-41 6z"/>
<path d="M1833 3570 c4 -14 7 -28 7 -32 0 -9 30 -11 30 -2 0 3 -10 18 -21 32
l-22 27 6 -25z"/>
<path d="M1504 3338 c-4 -6 1 -17 11 -25 23 -16 41 3 23 24 -13 16 -25 17 -34
1z"/>
<path d="M1571 2125 c-1 -11 -4 -37 -7 -57 -5 -31 -4 -38 10 -38 11 0 16 8 15
28 -2 38 -16 93 -18 67z"/>
<path d="M2110 2130 c0 -25 4 -30 24 -30 26 0 39 20 30 45 -4 8 -17 15 -30 15
-20 0 -24 -5 -24 -30z"/>
<path d="M2110 2010 c0 -28 3 -31 28 -28 21 2 27 8 27 28 0 20 -6 26 -27 28
-25 3 -28 0 -28 -28z"/>
<path d="M2660 2120 c0 -43 13 -52 30 -20 13 25 4 60 -16 60 -10 0 -14 -12
-14 -40z"/>
<path d="M3680 2120 c0 -29 4 -40 13 -37 6 2 12 19 12 37 0 18 -6 35 -12 38
-9 2 -13 -9 -13 -38z"/>
<path d="M1748 1654 c-8 -18 -9 -30 -2 -42 8 -12 6 -24 -5 -43 -14 -24 -13
-29 2 -53 24 -36 70 -36 94 0 16 25 16 28 1 55 -10 16 -13 31 -7 34 16 11 10
54 -10 65 -34 17 -61 12 -73 -16z m52 -24 c0 -11 -4 -20 -10 -20 -5 0 -10 9
-10 20 0 11 5 20 10 20 6 0 10 -9 10 -20z m6 -65 c4 -8 4 -22 0 -30 -7 -19
-36 -8 -36 14 0 32 26 43 36 16z"/>
<path d="M1880 1661 c0 -10 -3 -33 -7 -51 l-6 -33 36 6 c36 6 37 5 37 -24 0
-19 -5 -29 -15 -29 -8 0 -15 5 -15 10 0 13 -27 13 -35 -1 -10 -15 25 -49 50
-49 32 0 55 31 55 73 0 38 -27 64 -56 53 -9 -3 -14 1 -14 14 0 16 7 20 35 20
24 0 35 5 35 15 0 11 -12 15 -50 15 -42 0 -50 -3 -50 -19z"/>
<path d="M2077 1662 c-20 -22 -22 -73 -5 -90 7 -7 22 -12 35 -12 25 0 29 -10
11 -28 -9 -9 -15 -9 -25 0 -21 17 -41 -6 -23 -27 17 -21 53 -19 75 5 23 25 30
107 13 140 -17 32 -58 38 -81 12z m53 -41 c0 -11 -5 -23 -11 -27 -14 -8 -29
14 -22 33 8 20 33 16 33 -6z"/>
<path d="M2210 1665 c-7 -8 -10 -29 -8 -45 3 -17 1 -33 -4 -36 -4 -3 -8 -18
-8 -33 0 -51 60 -80 94 -45 17 16 22 69 8 78 -5 3 -7 19 -4 36 5 36 -12 60
-43 60 -12 0 -28 -7 -35 -15z m50 -41 c0 -16 -16 -19 -25 -4 -8 13 4 32 16 25
5 -4 9 -13 9 -21z m0 -68 c0 -14 -5 -28 -10 -31 -13 -8 -24 20 -16 40 9 24 26
17 26 -9z"/>
<path d="M2330 1629 l0 -50 33 3 c28 3 32 0 35 -24 2 -20 -1 -28 -12 -28 -8 0
-18 5 -21 10 -11 18 -35 11 -35 -10 0 -28 42 -47 74 -32 52 23 37 127 -17 120
-14 -2 -22 2 -22 12 0 10 12 16 33 18 20 2 32 9 32 18 0 10 -13 14 -50 14
l-50 0 0 -51z"/>
<path d="M2476 1659 c-17 -25 -13 -41 9 -32 12 4 15 -8 15 -66 0 -64 2 -71 19
-71 18 0 20 7 18 93 -2 86 -3 92 -24 95 -13 2 -27 -5 -37 -19z"/>
<path d="M2586 1664 c-20 -20 -21 -78 -1 -94 8 -7 24 -10 35 -7 22 6 27 -12 8
-31 -9 -9 -15 -9 -25 0 -10 8 -17 8 -25 0 -15 -15 8 -42 37 -42 45 0 72 61 56
131 -13 58 -51 78 -85 43z m52 -46 c-2 -13 -10 -23 -18 -23 -8 0 -16 10 -18
23 -3 17 2 22 18 22 16 0 21 -5 18 -22z"/>
<path d="M2792 1668 c-17 -17 -15 -58 2 -58 7 0 16 9 19 20 8 30 27 24 27 -8
0 -16 -12 -42 -30 -62 -45 -54 -40 -70 20 -70 38 0 50 4 50 15 0 9 -9 15 -25
15 l-26 0 26 37 c29 43 32 84 9 107 -18 19 -55 21 -72 4z"/>
<path d="M2916 1658 c-3 -13 -6 -36 -6 -52 0 -27 2 -28 35 -23 33 5 35 4 35
-24 0 -30 -17 -38 -37 -18 -13 13 -33 4 -33 -16 0 -36 71 -46 94 -13 32 46 15
101 -31 104 -15 0 -27 4 -25 7 1 4 2 12 2 17 0 6 14 10 30 10 20 0 30 5 30 15
0 11 -12 15 -44 15 -37 0 -45 -4 -50 -22z"/>
<path d="M3040 1665 c0 -10 10 -15 30 -15 33 0 35 -3 20 -29 -5 -10 -13 -44
-18 -75 -9 -55 -8 -56 15 -56 20 0 23 5 23 39 0 21 7 58 15 81 23 66 21 70
-35 70 -38 0 -50 -4 -50 -15z"/>
<path d="M3169 1664 c-13 -16 -18 -78 -7 -90 4 -3 21 -9 38 -13 29 -6 30 -7
17 -26 -13 -16 -17 -17 -31 -6 -21 17 -34 6 -20 -17 17 -27 59 -27 78 0 21 29
21 116 0 146 -18 26 -56 29 -75 6z m56 -49 c0 -28 -29 -25 -33 3 -3 19 0 23
15 20 10 -2 18 -12 18 -23z"/>
<path d="M2700 1510 c0 -15 7 -20 25 -20 18 0 25 5 25 20 0 15 -7 20 -25 20
-18 0 -25 -5 -25 -20z"/>
<path d="M1200 1430 c0 -24 57 -61 133 -86 45 -15 92 -33 103 -41 12 -8 43
-55 70 -105 61 -115 75 -123 203 -131 54 -3 109 -10 122 -17 13 -7 56 -45 94
-85 86 -88 113 -96 220 -65 108 31 138 28 230 -27 64 -38 89 -48 125 -48 36 0
61 10 125 48 93 55 117 58 240 25 l82 -21 45 21 c24 12 66 47 92 77 26 30 59
61 74 69 15 7 73 17 129 21 132 9 146 18 207 134 51 96 79 122 146 136 76 16
160 66 160 95 0 6 -41 10 -103 10 l-103 0 -78 -72 c-212 -197 -481 -332 -766
-384 -128 -23 -382 -23 -505 0 -284 53 -564 195 -777 394 l-66 62 -101 0 c-64
0 -101 -4 -101 -10z"/>
<path d="M1508 1370 c205 -195 494 -330 788 -370 129 -18 392 -8 515 18 252
55 502 186 694 365 l60 56 -1065 0 -1065 0 73 -69z"/>
</g>
</svg>
